<?xml version="1.0" standalone="no"?>
<!DOCTYPE svg PUBLIC "-//W3C//DTD SVG 20010904//EN"
 "http://www.w3.org/TR/2001/REC-SVG-20010904/DTD/svg10.dtd">
<svg version="1.0" xmlns="http://www.w3.org/2000/svg"
 width="394.000000pt" height="394.000000pt" viewBox="0 0 394.000000 394.000000"
 preserveAspectRatio="xMidYMid meet">
<metadata>
Created by potrace 1.11, written by Peter Selinger 2001-2013
</metadata>
<g transform="translate(0.000000,394.000000) scale(0.100000,-0.100000)"
fill="#000000" stroke="none">
<path d="M1902 3612 c-77 -107 -192 -338 -226 -452 -36 -124 -44 -172 -45
-305 -1 -64 -4 -86 -12 -78 -13 13 -51 4 -149 -35 -86 -34 -119 -59 -126 -96
-4 -27 5 -133 22 -233 5 -32 5 -32 -110 -138 -6 -6 -60 -53 -121 -105 -60 -52
-112 -98 -115 -101 -3 -3 -131 -115 -285 -249 -154 -134 -282 -246 -285 -249
-3 -3 -51 -45 -106 -93 -56 -48 -108 -93 -115 -100 -8 -7 -48 -42 -89 -77
-132 -113 -136 -119 -135 -176 1 -27 10 -67 21 -87 66 -130 240 -437 258 -456
52 -58 36 -57 603 -58 466 -1 526 -3 548 -18 14 -9 24 -20 23 -24 -6 -21 16
-113 37 -158 39 -79 74 -94 226 -94 147 0 196 16 230 75 l21 36 17 -33 c29
-59 69 -73 216 -75 111 -2 136 0 170 17 56 28 88 86 101 190 3 25 14 54 25 65
18 19 35 20 542 20 516 1 523 1 564 23 46 24 63 46 118 147 113 211 168 305
177 305 6 0 9 3 6 6 -4 3 1 22 9 42 9 20 17 56 17 80 2 49 -13 68 -123 162
-35 30 -123 107 -196 170 -73 63 -161 140 -195 170 -35 30 -75 66 -90 79 -14
13 -49 44 -79 70 -30 25 -72 62 -95 82 -23 20 -135 118 -251 219 -115 101
-239 211 -275 244 l-66 61 8 45 c40 227 34 255 -65 300 -72 32 -161 55 -182
46 -13 -4 -15 9 -15 82 0 225 -87 474 -255 726 -88 131 -80 130 -153 28z"/>
</g>
</svg>
