<?xml version="1.0" standalone="no"?>
<!DOCTYPE svg PUBLIC "-//W3C//DTD SVG 20010904//EN"
 "http://www.w3.org/TR/2001/REC-SVG-20010904/DTD/svg10.dtd">
<svg version="1.0" xmlns="http://www.w3.org/2000/svg"
 width="100.000000pt" height="100.000000pt" viewBox="0 0 100.000000 100.000000"
 preserveAspectRatio="xMidYMid meet">
<metadata>
Created by potrace 1.11, written by Peter Selinger 2001-2013
</metadata>
<g transform="translate(0.000000,100.000000) scale(0.100000,-0.100000)"
fill="#000000" stroke="none">
<path d="M146 959 c-24 -24 -56 -25 -57 -1 0 9 -11 -5 -24 -31 -42 -89 -44
-263 -3 -310 11 -12 16 -15 12 -7 -5 10 -4 12 3 5 16 -15 28 -59 14 -50 -17
10 11 -54 43 -102 14 -21 26 -44 26 -53 1 -20 29 -70 29 -50 0 8 -4 35 -9 60
-5 25 -12 90 -16 145 l-6 100 29 11 c29 11 31 10 43 -24 15 -43 50 -102 50
-86 0 6 -7 28 -15 49 -9 20 -13 46 -9 58 6 20 7 20 21 1 14 -18 15 -16 10 19
-5 32 -3 38 9 33 9 -3 21 -6 29 -6 16 0 27 -40 14 -56 -12 -15 -2 -124 17
-173 11 -29 14 -31 13 -11 -1 14 -1 36 0 50 1 23 3 23 12 6 6 -10 13 -33 14
-51 4 -39 23 -78 34 -70 5 2 13 -13 19 -35 6 -23 6 -42 1 -46 -5 -3 -10 7 -10
23 -1 20 -3 22 -6 9 -3 -10 -18 -37 -34 -59 -16 -22 -29 -46 -29 -54 0 -7 -4
-13 -10 -13 -12 0 -12 20 0 80 11 57 6 63 -11 13 -6 -20 -18 -43 -25 -50 -7
-7 -15 -31 -19 -54 -8 -49 3 -169 16 -169 5 0 9 9 9 21 0 18 5 20 37 16 21 -3
45 -1 55 4 14 8 25 5 45 -11 28 -22 59 -19 79 8 8 11 15 12 30 4 11 -6 36 -8
57 -5 39 5 40 3 38 -47 l-1 -25 11 25 c18 43 22 144 9 200 -7 29 -16 47 -19
41 -4 -6 -13 10 -19 36 -17 62 -22 51 -9 -20 9 -49 8 -60 -6 -74 -15 -15 -16
-15 -10 6 4 14 -4 36 -23 64 -16 23 -32 49 -36 57 -5 11 -7 8 -7 -8 -1 -13 -5
-21 -10 -18 -5 4 -5 23 1 46 6 22 14 37 19 35 11 -8 30 31 34 70 1 18 8 41 14
51 10 18 10 18 12 -1 1 -11 1 -33 0 -50 l-1 -30 14 35 c18 48 29 159 17 174
-13 16 -3 56 14 56 8 0 21 3 30 6 14 6 16 1 10 -32 -6 -36 -5 -38 9 -20 14 17
16 18 22 2 4 -9 -1 -37 -11 -62 -9 -25 -15 -47 -13 -50 5 -5 58 100 58 115 0
5 12 5 31 -2 l31 -12 -6 -100 c-4 -55 -11 -120 -16 -145 -5 -25 -9 -52 -9 -60
0 -20 28 30 29 50 0 9 12 32 26 53 32 48 60 112 43 102 -14 -9 -2 35 14 50 7
7 8 5 3 -5 -4 -8 1 -5 12 7 41 47 39 221 -3 310 -13 26 -24 40 -24 31 -1 -24
-32 -23 -59 3 l-22 20 6 -43 c3 -24 2 -38 -3 -32 -4 6 -16 13 -25 17 -13 5
-18 -3 -23 -36 -13 -76 -16 -92 -19 -94 -2 -2 -6 29 -9 68 -6 74 -27 122 -27
62 0 -17 -6 -45 -13 -62 -16 -37 -27 -29 -46 29 -10 32 -54 90 -67 90 -4 0 -3
-11 0 -24 4 -16 0 -31 -12 -43 -9 -10 -16 -17 -15 -15 1 2 -3 17 -9 33 -10 29
-32 35 -34 11 -1 -7 -2 -17 -3 -22 -1 -7 -7 -7 -19 -1 -13 7 -22 7 -30 -1 -8
-8 -13 -4 -18 16 -3 14 -10 26 -14 26 -8 0 -25 -49 -22 -62 4 -16 -8 -7 -24
17 -13 19 -14 28 -5 39 9 10 9 16 1 21 -16 10 -79 -73 -80 -106 0 -8 -5 -20
-12 -27 -9 -9 -15 -5 -25 19 -7 17 -13 45 -13 62 0 20 -4 27 -9 21 -10 -9 -18
-58 -21 -124 l-2 -35 -8 30 c-4 17 -11 47 -14 68 -4 22 -13 37 -21 37 -10 0
-12 -6 -8 -17 6 -16 5 -16 -10 -4 -13 10 -16 22 -11 47 7 39 6 40 -20 13z
m671 -71 c-3 -8 -6 -5 -6 6 -1 11 2 17 5 13 3 -3 4 -12 1 -19z m-309 -468 c-1
-49 -5 -90 -9 -90 -8 0 -10 160 -2 173 10 17 12 2 11 -83z"/>
</g>
</svg>
